<?xml version="1.0" standalone="no"?>
<!DOCTYPE svg PUBLIC "-//W3C//DTD SVG 20010904//EN"
 "http://www.w3.org/TR/2001/REC-SVG-20010904/DTD/svg10.dtd">
<svg version="1.0" xmlns="http://www.w3.org/2000/svg"
 width="2186.000000pt" height="2186.000000pt" viewBox="0 0 2186.000000 2186.000000"
 preserveAspectRatio="xMidYMid meet">
<metadata>
Created by potrace 1.11, written by Peter Selinger 2001-2013
</metadata>
<g transform="translate(0.000000,2186.000000) scale(0.100000,-0.100000)"
fill="#000000" stroke="none">
<path d="M9927 16965 c-46 -18 -183 -107 -297 -194 -479 -365 -908 -842 -1353
-1503 -71 -107 -192 -296 -232 -366 -6 -9 -28 -46 -49 -82 -21 -36 -48 -81
-59 -100 -10 -19 -39 -69 -62 -110 -163 -285 -505 -969 -505 -1010 0 -6 -27 9
-60 32 -166 119 -426 294 -655 443 -107 70 -535 335 -540 335 -2 0 -39 22 -82
48 -43 26 -109 65 -148 87 -38 21 -86 47 -105 58 -316 180 -829 442 -885 453
-97 18 -176 -3 -247 -65 -36 -32 -75 -97 -83 -142 -8 -40 -31 -216 -40 -309
-3 -30 -8 -75 -10 -100 -3 -25 -7 -74 -10 -110 -2 -36 -7 -92 -10 -125 -23
-255 -29 -446 -30 -860 0 -378 6 -601 21 -767 2 -32 1 -58 -3 -58 -7 0 -268
70 -373 100 -40 11 -313 76 -350 84 -14 2 -86 18 -159 35 -74 17 -148 34 -163
36 -16 3 -60 12 -98 20 -38 8 -83 17 -100 20 -16 3 -74 14 -128 25 -54 10
-120 22 -147 25 -28 4 -54 10 -59 13 -19 11 -122 0 -161 -17 -94 -42 -165
-141 -168 -235 -1 -40 11 -179 19 -220 2 -12 7 -41 10 -66 3 -25 8 -54 10 -65
2 -11 7 -40 10 -65 3 -25 7 -52 9 -60 3 -8 14 -64 24 -125 11 -60 22 -121 25
-135 3 -14 11 -50 17 -80 11 -55 63 -282 76 -330 3 -14 8 -33 10 -43 27 -142
208 -730 303 -987 18 -47 40 -107 50 -135 28 -80 143 -359 205 -500 109 -248
360 -746 425 -845 6 -8 13 -22 17 -30 18 -39 188 -313 291 -470 450 -683 1009
-1308 1602 -1790 69 -56 132 -107 140 -114 9 -6 42 -32 75 -56 33 -25 62 -47
65 -51 11 -13 284 -202 405 -281 265 -172 490 -300 820 -464 116 -58 201 -102
190 -100 -11 3 -51 10 -90 16 -38 5 -79 11 -90 14 -28 5 -83 14 -125 21 -19 3
-57 10 -85 15 -27 5 -63 12 -80 15 -114 19 -406 80 -604 126 -1100 252 -2177
628 -3216 1122 -146 69 -521 257 -605 304 -30 16 -95 52 -145 78 -49 27 -137
75 -195 108 -58 33 -123 70 -145 82 -151 83 -600 364 -815 510 -302 205 -478
333 -707 516 -103 82 -130 99 -170 105 -26 4 -57 7 -68 5 -129 -17 -223 -121
-229 -254 -5 -115 32 -187 143 -274 37 -29 76 -61 87 -71 10 -10 82 -65 159
-122 77 -58 145 -108 150 -113 77 -62 507 -352 740 -499 596 -375 1354 -777
2010 -1065 94 -41 184 -81 200 -88 147 -67 727 -293 965 -376 568 -199 1194
-380 1740 -505 36 -8 83 -19 105 -24 139 -33 547 -113 705 -139 69 -12 136
-23 150 -26 13 -2 42 -7 65 -10 22 -3 65 -10 95 -15 30 -5 78 -12 105 -15 28
-4 57 -8 65 -10 14 -4 41 -8 145 -20 21 -3 73 -9 115 -15 41 -5 100 -12 130
-15 30 -3 66 -8 80 -10 14 -2 54 -6 90 -10 36 -3 81 -8 100 -10 19 -2 71 -6
115 -10 44 -3 91 -8 105 -10 14 -3 70 -7 125 -10 55 -3 120 -8 145 -10 83 -9
341 -21 635 -30 165 -6 706 -6 805 -1 41 2 145 7 230 10 315 13 583 32 870 61
25 3 68 7 95 10 136 13 171 17 320 36 88 10 171 21 185 24 14 2 48 7 75 10 28
3 75 10 105 15 30 5 75 12 100 15 25 3 56 7 70 10 14 2 41 7 60 10 50 8 145
24 177 31 16 3 42 7 58 10 38 6 193 35 220 40 11 2 34 7 50 9 69 12 469 99
585 126 69 17 136 33 149 35 14 3 77 19 140 35 64 17 123 32 131 34 8 2 67 17
130 35 63 17 122 33 130 34 26 6 229 65 370 108 673 202 1502 510 2123 787 26
12 66 30 90 40 208 92 474 219 742 352 362 180 422 211 835 436 145 80 449
256 725 420 390 233 975 614 1382 900 45 32 101 72 125 88 403 282 1421 1059
1436 1097 2 5 9 14 15 21 32 33 55 110 52 172 -6 112 -61 202 -150 244 -53 25
-136 28 -186 7 -26 -11 -268 -196 -469 -359 -8 -7 -82 -64 -165 -127 -133
-102 -234 -178 -455 -342 -36 -26 -69 -51 -75 -56 -5 -4 -32 -23 -60 -42 -27
-19 -68 -48 -90 -65 -23 -16 -52 -38 -66 -48 -167 -122 -911 -627 -924 -627
-3 0 -27 -15 -53 -33 -56 -39 -450 -287 -457 -287 -2 0 -23 -13 -47 -29 -24
-16 -59 -38 -78 -49 -19 -11 -98 -57 -175 -103 -127 -75 -195 -114 -295 -171
-28 -17 -314 -174 -565 -311 -132 -72 -804 -404 -995 -492 -206 -94 -785 -345
-797 -345 -3 0 -42 -15 -87 -34 -45 -18 -119 -48 -166 -66 -47 -18 -98 -38
-115 -45 -133 -58 -912 -324 -1170 -400 -49 -14 -111 -33 -137 -41 -26 -7 -50
-14 -54 -14 -4 0 69 51 162 113 198 133 506 362 580 432 6 5 35 30 65 55 189
158 483 447 664 655 39 44 78 89 88 100 27 29 195 238 254 315 157 207 414
596 512 775 12 22 32 58 44 80 173 305 323 621 469 990 32 83 63 159 68 170
49 109 274 841 305 995 2 8 12 51 24 95 11 44 23 96 26 115 3 19 10 51 15 70
12 47 39 179 46 227 3 21 7 46 10 55 7 25 49 272 59 349 2 14 8 59 14 100 5
41 13 97 16 124 3 28 8 64 10 80 5 34 12 104 21 215 3 41 8 86 10 100 3 14 8
170 11 348 4 230 2 322 -5 322 -6 0 -51 -9 -99 -21 -48 -11 -95 -22 -103 -24
-291 -65 -858 -214 -1000 -262 -25 -8 -58 -19 -75 -23 -16 -4 -82 -24 -145
-45 -63 -20 -122 -38 -130 -40 -18 -5 -208 -71 -233 -80 -17 -7 -18 2 -11 176
12 287 6 789 -10 889 -3 14 -7 65 -11 114 -4 49 -8 98 -10 110 -2 11 -11 75
-20 141 -9 66 -23 154 -32 195 -8 41 -17 86 -19 100 -43 235 -168 575 -267
728 -80 123 -181 174 -300 149 -43 -8 -352 -135 -487 -199 -47 -22 -103 -47
-125 -56 -22 -9 -137 -65 -255 -124 -187 -94 -251 -127 -387 -202 -102 -56
-369 -212 -478 -280 -211 -130 -640 -423 -701 -478 -26 -23 -22 -28 -68 87
-21 50 -43 104 -51 120 -7 17 -34 77 -60 135 -52 117 -193 402 -245 495 -51
93 -104 188 -115 207 -5 9 -27 46 -48 82 -184 319 -490 747 -765 1071 -9 11
-32 38 -50 60 -163 195 -550 579 -752 745 -41 34 -84 69 -95 79 -57 47 -184
140 -215 156 -46 24 -153 29 -203 10z m183 -684 c582 -497 1121 -1167 1532
-1902 65 -117 211 -405 260 -514 15 -33 39 -87 54 -120 31 -69 152 -371 156
-390 2 -6 -46 -54 -107 -106 -60 -51 -117 -101 -126 -109 -8 -8 -53 -49 -99
-90 -202 -180 -526 -505 -720 -719 -47 -52 -92 -102 -100 -111 -8 -9 -40 -45
-70 -81 -53 -62 -74 -86 -120 -139 -119 -135 -408 -511 -570 -741 -56 -79
-105 -144 -110 -144 -5 0 -54 53 -109 118 -219 258 -458 513 -741 792 -193
190 -233 228 -355 340 -61 54 -112 102 -115 105 -3 3 -43 39 -90 80 -46 40
-96 84 -110 96 -21 18 -197 167 -350 296 -19 16 -116 93 -217 171 -100 78
-182 145 -182 149 -1 6 55 138 99 233 39 86 278 566 313 630 24 44 59 109 79
145 19 36 75 133 123 215 466 798 987 1436 1485 1818 69 53 88 63 100 54 8 -7
49 -41 90 -76z m4873 -1936 c31 -97 74 -262 87 -336 5 -30 11 -64 14 -75 7
-35 16 -96 21 -144 3 -25 7 -56 10 -69 2 -14 7 -63 11 -110 3 -47 8 -89 10
-92 7 -13 18 -327 18 -534 0 -327 -20 -739 -36 -749 -7 -4 -107 -47 -203 -87
-111 -46 -155 -66 -395 -177 -720 -335 -1446 -790 -2025 -1266 -355 -292 -715
-642 -990 -961 -33 -39 -64 -75 -70 -81 -14 -16 -28 -34 -119 -147 -44 -54
-82 -94 -86 -90 -4 4 -21 33 -37 63 -132 242 -251 439 -431 710 -85 129 -158
237 -161 240 -4 3 -34 43 -66 89 -33 45 -66 91 -73 101 -12 17 -8 28 33 92
108 167 480 672 572 778 17 19 77 91 134 160 57 68 110 132 119 141 8 8 44 49
80 89 155 175 496 523 650 665 36 33 90 83 120 111 47 42 252 221 300 261 488
400 1010 760 1465 1013 198 110 258 142 425 225 318 160 581 278 591 267 4 -4
18 -43 32 -87z m-9648 -120 c128 -70 540 -307 556 -321 8 -8 18 -14 22 -14 26
0 1051 -669 1087 -709 3 -3 28 -21 55 -40 69 -48 468 -344 535 -398 62 -50 59
-47 155 -123 38 -30 79 -62 90 -72 11 -9 54 -44 95 -78 90 -74 88 -72 270
-229 80 -69 161 -139 180 -157 19 -18 45 -41 57 -51 199 -172 688 -661 923
-923 41 -46 80 -88 85 -94 45 -48 316 -371 327 -391 4 -7 -2 -28 -15 -47 -24
-35 -167 -283 -244 -422 -56 -102 -308 -613 -318 -643 -3 -13 -9 -23 -13 -22
-4 0 -33 38 -66 84 -264 379 -695 836 -1136 1201 -193 160 -631 478 -772 559
-9 6 -45 28 -80 49 -71 44 -329 196 -333 196 -1 0 -54 28 -116 63 -118 64
-336 174 -494 247 -112 52 -234 106 -390 173 -103 44 -414 162 -570 217 -82
29 -154 57 -160 62 -5 5 -10 19 -11 31 0 20 -11 129 -19 202 -2 17 -7 86 -10
155 -4 69 -9 150 -11 180 -5 89 -5 675 0 800 6 124 16 311 21 375 2 22 6 83
10 135 6 80 11 134 14 148 1 3 115 -56 276 -143z m-2045 -1980 c41 -8 86 -18
100 -20 14 -3 45 -10 70 -15 190 -38 656 -156 895 -226 28 -8 55 -16 60 -17
93 -22 146 -44 150 -62 5 -22 12 -60 21 -115 38 -235 174 -721 254 -905 5 -11
17 -40 27 -65 10 -25 45 -101 79 -170 82 -167 137 -217 255 -227 76 -7 134 10
194 55 70 54 100 117 100 213 0 70 -4 84 -48 180 -27 57 -53 112 -58 122 -19
37 -73 177 -111 292 -44 134 -122 424 -115 431 3 4 147 -47 212 -75 11 -5 79
-32 150 -61 736 -299 1412 -681 1960 -1109 323 -252 724 -637 941 -901 16 -19
32 -37 35 -40 15 -12 224 -289 292 -387 69 -100 227 -348 227 -356 0 -2 23
-44 51 -93 98 -170 249 -487 315 -663 76 -199 150 -418 179 -531 22 -82 68
-258 70 -270 34 -158 82 -416 90 -490 1 -14 5 -47 9 -75 14 -110 16 -130 32
-300 10 -105 12 -477 3 -530 -18 -112 -26 -188 -34 -305 -2 -34 -3 -35 -41
-33 -73 5 -462 85 -642 133 -42 12 -88 23 -102 26 -111 23 -664 197 -775 244
-11 5 -95 38 -187 74 -167 66 -217 88 -403 174 -107 50 -315 155 -405 205
-106 57 -315 180 -357 209 -23 15 -44 28 -46 28 -3 0 -79 50 -169 111 -337
230 -624 458 -896 714 -76 71 -336 333 -369 371 -27 31 -146 166 -159 178 -8
9 -90 108 -232 281 -8 11 -66 87 -127 170 -703 946 -1228 2110 -1514 3355 -17
74 -33 146 -35 160 -2 14 -9 45 -15 70 -11 49 -14 64 -30 160 -6 36 -14 75
-16 87 -4 18 -1 21 17 18 13 -3 57 -12 98 -20z m13636 -67 c-3 -40 -8 -84 -10
-98 -3 -14 -7 -52 -10 -85 -7 -74 -40 -306 -61 -433 -22 -129 -81 -429 -89
-453 -3 -8 -7 -27 -10 -44 -3 -16 -10 -50 -16 -75 -13 -52 -19 -77 -25 -105
-44 -205 -275 -927 -360 -1120 -7 -16 -36 -86 -65 -155 -104 -248 -272 -591
-380 -775 -29 -49 -64 -110 -78 -135 -155 -274 -454 -688 -715 -989 -114 -131
-421 -441 -542 -546 -49 -43 -105 -91 -123 -107 -18 -16 -99 -80 -180 -144
-81 -63 -152 -119 -158 -124 -37 -29 -337 -228 -434 -287 -444 -271 -952 -500
-1475 -666 -163 -51 -275 -85 -320 -96 -22 -5 -76 -19 -120 -30 -44 -12 -149
-37 -233 -56 -150 -34 -176 -40 -237 -50 -16 -3 -75 -14 -130 -25 -119 -22
-492 -77 -585 -85 -36 -3 -78 -8 -95 -10 -16 -2 -64 -7 -105 -11 -41 -3 -79
-7 -85 -8 -6 0 -10 23 -9 54 2 118 15 377 20 415 12 84 15 102 29 175 8 41 16
86 19 100 3 20 19 93 51 230 1 8 10 42 19 75 9 33 19 71 22 85 21 102 153 511
227 700 292 755 688 1416 1232 2058 188 223 527 564 750 757 32 28 63 55 69
61 9 8 120 100 271 223 159 129 582 422 811 561 322 197 772 437 1049 560 28
12 73 32 100 45 112 50 342 147 428 181 51 19 114 44 140 55 218 91 851 299
1187 391 41 11 104 28 140 38 98 27 93 31 86 -52z m-6674 -2198 c159 -234 319
-494 431 -700 16 -30 42 -77 57 -105 60 -110 130 -252 130 -265 0 -7 -10 -27
-23 -44 -23 -31 -198 -324 -254 -426 -77 -139 -94 -171 -141 -265 -105 -209
-246 -530 -317 -720 l-19 -50 -31 125 c-100 394 -250 791 -446 1186 l-101 201
55 134 c83 203 285 635 352 749 8 14 38 68 66 120 29 52 65 118 81 145 16 28
32 58 35 67 7 22 7 22 125 -152z"/>
<path d="M5677 10195 c-163 -46 -286 -161 -343 -323 -18 -53 -22 -82 -20 -161
2 -53 6 -106 9 -119 19 -75 99 -203 149 -240 9 -7 23 -18 30 -25 16 -16 128
-78 128 -71 0 2 8 0 19 -5 80 -43 303 -26 381 29 15 11 33 20 39 20 6 0 39 28
75 63 273 268 160 721 -209 832 -56 16 -199 17 -258 0z"/>
</g>
</svg>
