<?xml version="1.0" encoding="UTF-8" standalone="no"?>
<!-- Created with Inkscape (http://www.inkscape.org/) -->

<svg
   xmlns:dc="http://purl.org/dc/elements/1.1/"
   xmlns:cc="http://creativecommons.org/ns#"
   xmlns:rdf="http://www.w3.org/1999/02/22-rdf-syntax-ns#"
   xmlns:svg="http://www.w3.org/2000/svg"
   xmlns="http://www.w3.org/2000/svg"
   xmlns:sodipodi="http://sodipodi.sourceforge.net/DTD/sodipodi-0.dtd"
   xmlns:inkscape="http://www.inkscape.org/namespaces/inkscape"
   version="1.1"
   id="svg2"
   xml:space="preserve"
   width="1511.8134"
   height="986.52197"
   viewBox="0 0 1511.8134 986.522"
   sodipodi:docname="logo.svg"
   inkscape:version="0.92.5 (2060ec1f9f, 2020-04-08)"><metadata
     id="metadata8"><rdf:RDF><cc:Work
         rdf:about=""><dc:format>image/svg+xml</dc:format><dc:type
           rdf:resource="http://purl.org/dc/dcmitype/StillImage" /><dc:title /></cc:Work></rdf:RDF></metadata><defs
     id="defs6"><clipPath
       clipPathUnits="userSpaceOnUse"
       id="clipPath28"><path
         d="M 0,1133.86 H 1133.86 V 0 H 0 Z"
         id="path26"
         inkscape:connector-curvature="0" /></clipPath></defs><sodipodi:namedview
     pagecolor="#ffffff"
     bordercolor="#666666"
     borderopacity="1"
     objecttolerance="10"
     gridtolerance="10"
     guidetolerance="10"
     inkscape:pageopacity="0"
     inkscape:pageshadow="2"
     inkscape:window-width="1920"
     inkscape:window-height="1015"
     id="namedview4"
     showgrid="false"
     inkscape:zoom="0.44152858"
     inkscape:cx="598.99536"
     inkscape:cy="436.22237"
     inkscape:window-x="0"
     inkscape:window-y="0"
     inkscape:window-maximized="1"
     inkscape:current-layer="g10" /><g
     id="g10"
     inkscape:groupmode="layer"
     inkscape:label="logo"
     transform="matrix(1.3333333,0,0,-1.3333333,0,986.52195)"><path
       d="M 0,-4.09e-5 H 1133.86 V 739.89165 H 0 Z"
       style="fill:#9f8c7f;fill-opacity:1;fill-rule:nonzero;stroke:none;stroke-width:0.80780095"
       id="path12"
       inkscape:connector-curvature="0" /><g
       id="g14"
       transform="translate(222.4079,261.57846)"
       style="fill:#594c43;fill-opacity:1"><path
         d="m 0,0 -28.672,71.938 h 13.051 L 6.577,13.463 28.98,71.938 H 41.621 L 12.538,0 Z"
         style="fill:#594c43;fill-opacity:1;fill-rule:nonzero;stroke:none"
         id="path16"
         inkscape:connector-curvature="0" /></g><g
       id="g18"
       transform="translate(292.1892,322.62236)"
       style="fill:#594c43;fill-opacity:1"><path
         d="M 0,0 V -19.423 H 35.147 V -30.316 H 0 V -50.15 H 40.491 V -61.044 H -12.126 V 10.894 H 39.258 V 0 Z"
         style="fill:#594c43;fill-opacity:1;fill-rule:nonzero;stroke:none"
         id="path20"
         inkscape:connector-curvature="0" /></g><g
       id="g30"
       transform="translate(390.9519,249.96616)"
       style="fill:#594c43;fill-opacity:1"><path
         d="m 0,0 c 0,-1.953 -0.719,-3.7 -1.85,-5.345 l -5.858,-8.838 -2.158,8.838 c -1.85,1.234 -2.775,3.187 -2.775,5.345 0,3.802 2.672,6.577 6.372,6.577 C -2.98,6.577 0,4.11 0,0 M 22.609,46.965 V 20.45 C 15.313,14.9 4.521,11.099 -5.344,11.099 c -21.273,0 -37.819,15.928 -37.819,36.482 0,20.554 16.751,36.277 38.538,36.277 10.277,0 20.554,-3.905 27.645,-10.071 l -6.886,-8.941 c -5.549,5.138 -13.257,8.221 -20.759,8.221 -14.695,0 -26.206,-11.201 -26.206,-25.486 0,-14.388 11.613,-25.589 26.309,-25.589 5.344,0 11.407,1.85 16.546,4.933 v 20.04 z"
         style="fill:#594c43;fill-opacity:1;fill-rule:nonzero;stroke:none"
         id="path32"
         inkscape:connector-curvature="0" /></g><g
       id="g34"
       transform="translate(449.1213,322.62236)"
       style="fill:#594c43;fill-opacity:1"><path
         d="M 0,0 V -19.423 H 35.147 V -30.316 H 0 V -50.15 H 40.491 V -61.044 H -12.126 V 10.894 H 39.257 V 0 Z"
         style="fill:#594c43;fill-opacity:1;fill-rule:nonzero;stroke:none"
         id="path36"
         inkscape:connector-curvature="0" /></g><g
       id="g38"
       transform="translate(536.9899,322.62236)"
       style="fill:#594c43;fill-opacity:1"><path
         d="M 0,0 V -61.044 H -12.126 V 0 H -34.838 V 10.894 H 22.814 V 0 Z"
         style="fill:#594c43;fill-opacity:1;fill-rule:nonzero;stroke:none"
         id="path40"
         inkscape:connector-curvature="0" /></g><g
       id="g42"
       transform="translate(597.6267,320.56716)"
       style="fill:#594c43;fill-opacity:1"><path
         d="m 0,0 -13.565,-31.96 h 27.13 z m -18.087,-42.751 -6.886,-16.238 h -12.64 L -5.858,12.949 H 6.577 L 38.024,-58.989 H 25.075 l -6.885,16.238 z"
         style="fill:#594c43;fill-opacity:1;fill-rule:nonzero;stroke:none"
         id="path44"
         inkscape:connector-curvature="0" /></g><g
       id="g46"
       transform="translate(670.6989,322.62236)"
       style="fill:#594c43;fill-opacity:1"><path
         d="M 0,0 V -61.044 H -12.127 V 0 H -34.839 V 10.894 H 22.814 V 0 Z"
         style="fill:#594c43;fill-opacity:1;fill-rule:nonzero;stroke:none"
         id="path48"
         inkscape:connector-curvature="0" /></g><path
       d="m 710.1652,333.51566 h 12.126 v -71.938 h -12.126 z m -6.989,19.732 h 26.205 v -8.53 h -26.205 z"
       style="fill:#594c43;fill-opacity:1;fill-rule:nonzero;stroke:none"
       id="path50"
       inkscape:connector-curvature="0" /><g
       id="g52"
       transform="translate(766.9948,261.57846)"
       style="fill:#594c43;fill-opacity:1"><path
         d="m 0,0 -28.672,71.938 h 13.051 L 6.577,13.463 28.98,71.938 H 41.621 L 12.538,0 Z"
         style="fill:#594c43;fill-opacity:1;fill-rule:nonzero;stroke:none"
         id="path54"
         inkscape:connector-curvature="0" /></g><path
       d="m 835.0302,353.24766 h 26.205 v -8.53 h -26.205 z m 12.845,-32.68 -13.565,-31.961 h 27.131 z m -18.086,-42.752 -6.886,-16.237 h -12.641 l 31.756,71.937 h 12.435 l 31.447,-71.937 h -12.949 l -6.886,16.237 z"
       style="fill:#594c43;fill-opacity:1;fill-rule:nonzero;stroke:none"
       id="path56"
       inkscape:connector-curvature="0" /><g
       id="g58"
       transform="translate(949.9274,326.63066)"
       style="fill:#594c43;fill-opacity:1"><path
         d="m 0,0 -5.036,-10.688 c -7.81,4.728 -15.62,6.68 -21.068,6.68 -7.09,0 -11.714,-2.672 -11.714,-7.502 0,-15.724 38.845,-7.297 38.743,-33.195 0,-12.845 -11.305,-20.758 -27.131,-20.758 -11.305,0 -21.992,4.625 -29.392,11.407 l 5.242,10.482 c 7.399,-6.782 16.648,-10.482 24.356,-10.482 8.427,0 13.462,3.185 13.462,8.735 0,16.032 -38.846,7.091 -38.846,32.68 0,12.332 10.585,20.04 26.205,20.04 C -15.826,7.399 -6.68,4.419 0,0"
         style="fill:#594c43;fill-opacity:1;fill-rule:nonzero;stroke:none"
         id="path60"
         inkscape:connector-curvature="0" /></g><g
       id="g62"
       transform="translate(313.0134,171.18035)"><path
         d="m 0,0 0.109,0.22 c -1.645,0.219 -3.181,0.329 -4.498,0.329 -4.717,0 -7.35,-1.207 -8.996,-2.962 -1.426,-1.536 -1.974,-3.182 -1.974,-4.608 0,-1.426 0.548,-2.633 1.316,-3.182 0.768,-0.658 1.646,-0.987 2.853,-0.987 C -5.815,-10.642 -2.304,-4.607 0,0 m 9.764,-36.753 c -1.536,1.756 -2.413,4.279 -2.852,6.692 -0.549,2.633 -0.988,6.035 -1.098,9.765 -0.219,3.071 -0.329,6.473 -0.329,9.983 0,2.853 0.11,5.925 0.11,8.887 V 2.523 C 3.291,-3.62 -1.207,-13.604 -8.887,-14.152 c -2.084,0 -4.169,0.329 -6.692,2.194 -2.633,2.084 -3.73,4.498 -3.73,6.802 0,2.085 0.877,4.169 2.304,5.595 2.194,2.084 5.376,3.621 10.093,3.621 2.194,0 4.389,-0.22 7.351,-0.988 L 1.316,2.743 c 2.304,6.034 3.73,11.629 5.047,17.444 l 0.22,3.95 C 7.351,33.462 9.435,49.15 9.545,49.37 9.874,51.016 13.494,49.041 13.714,47.396 13.604,42.458 12.397,29.513 11.849,24.356 11.629,22.162 10.751,19.09 10.642,17.225 10.203,11.739 9.983,7.461 9.874,3.292 9.654,-1.865 9.545,-7.021 9.545,-11.958 c 0,-3.621 0,-7.021 0.329,-10.203 0.109,-3.62 0.439,-6.912 0.987,-9.436 0.659,-2.303 0.988,-3.62 1.317,-4.169 l 0.219,-0.218 h 0.11 c 0.658,-0.329 1.536,-1.098 1.755,-1.756 0.329,-0.878 -0.11,-1.317 -1.316,-1.097 -1.207,0.329 -2.414,1.206 -3.182,2.084"
         style="fill:#f4f4f4;fill-opacity:1;fill-rule:nonzero;stroke:none"
         id="path64"
         inkscape:connector-curvature="0" /></g><g
       id="g66"
       transform="translate(342.1921,185.99185)"><path
         d="m 0,0 c 0.22,0.329 0.988,2.523 1.207,3.071 l 0.219,1.646 c 0,0.659 1.207,0.878 2.304,0.439 C 5.157,4.827 6.034,3.949 5.815,3.4 5.815,2.962 5.815,2.194 5.486,1.536 5.267,0.987 4.389,-1.427 4.06,-1.975 3.73,-2.414 2.414,-2.414 1.426,-1.865 0.11,-1.427 -0.548,-0.439 0,0 m -3.291,-18.212 c 0,3.4 0.658,6.802 1.865,8.667 0.11,0.549 1.207,0.658 2.523,0.329 1.207,-0.439 1.865,-1.316 1.756,-1.865 -0.878,-0.878 -3.072,-13.275 -1.427,-14.701 0.878,-0.658 1.975,-0.988 3.182,-0.988 6.802,0 18.432,8.777 21.723,12.069 0.439,0.438 1.536,-0.22 0.219,-2.634 -2.084,-3.84 -12.068,-12.507 -19.638,-12.836 -2.743,-0.109 -5.705,0.549 -7.789,2.853 -1.646,1.756 -2.414,5.485 -2.414,9.106"
         style="fill:#f4f4f4;fill-opacity:1;fill-rule:nonzero;stroke:none"
         id="path68"
         inkscape:connector-curvature="0" /></g><g
       id="g70"
       transform="translate(373.5671,158.78285)"><path
         d="m 0,0 c 0.988,-0.219 2.194,-0.329 3.621,-0.329 3.51,0 7.899,0.549 10.752,1.207 -2.744,1.427 -6.913,3.511 -9.106,4.718 -2.853,1.645 -5.925,2.743 -6.364,6.034 -0.878,5.814 11.081,9.325 16.676,10.094 1.755,0.218 3.95,-1.866 3.072,-2.963 C 14.592,17.335 4.608,15.47 3.401,12.617 2.743,11.081 5.267,9.984 7.46,8.668 11.629,6.363 14.921,4.718 17.115,2.963 19.529,0.878 17.444,-2.193 14.592,-2.962 12.617,-3.511 9.765,-3.84 6.912,-3.84 4.169,-3.84 1.536,-3.511 -0.109,-2.852 -1.426,-2.193 -2.414,0.549 0,0"
         style="fill:#f4f4f4;fill-opacity:1;fill-rule:nonzero;stroke:none"
         id="path72"
         inkscape:connector-curvature="0" /></g><g
       id="g74"
       transform="translate(408.8908,160.42935)"><path
         d="m 0,0 c 0,6.363 0.11,12.287 0.22,16.566 0.11,5.157 0.329,11.629 0.658,18.322 -9.106,-0.768 -17.664,-1.427 -26.44,-2.962 -2.085,-0.329 -4.389,2.523 -2.524,2.962 7.79,1.425 15.579,2.303 29.074,3.401 0.438,8.557 0.987,17.225 1.426,24.026 -0.11,1.755 4.169,1.097 4.498,-1.097 -0.768,-5.486 -1.426,-14.043 -1.865,-22.6 0.987,0 2.084,0.11 3.182,0.219 9.325,0.658 21.832,1.645 32.584,1.645 6.253,0 17.992,-4.716 17.114,-4.607 -4.936,0.987 -11.08,1.316 -17.663,1.316 -11.739,0 -24.575,-1.096 -32.913,-1.754 -0.878,-0.111 -1.646,-0.22 -2.523,-0.22 L 4.06,16.785 C 3.95,9.764 3.621,-0.549 3.621,-10.532 c 0,-11.191 0.439,-21.943 1.865,-27.099 0.329,-2.523 -3.072,-0.22 -3.84,2.084 C 0.439,-31.707 0,-14.701 0,0"
         style="fill:#f4f4f4;fill-opacity:1;fill-rule:nonzero;stroke:none"
         id="path76"
         inkscape:connector-curvature="0" /></g><g
       id="g78"
       transform="translate(433.3542,162.29365)"><path
         d="M 0,0 C 0.548,-3.181 1.755,-4.388 3.84,-4.278 8.667,-4.059 11.081,2.194 9.325,6.145 6.802,6.583 4.717,7.241 3.181,8.229 L 2.962,8.01 C 1.536,6.912 -0.549,3.072 0,0 M 13.823,5.596 C 14.262,4.17 14.372,2.523 14.043,0.878 13.055,-4.607 8.557,-7.351 3.511,-7.021 c -4.06,0.219 -6.803,3.621 -7.351,6.692 -0.768,4.608 2.084,9.874 4.608,10.752 0.219,0 0.329,0.109 0.548,0.109 0.439,1.536 1.207,2.743 3.401,2.634 2.963,-0.439 5.376,-1.865 7.022,-3.84 2.742,-0.329 5.595,-0.439 8.118,-0.439 5.157,0 9.435,0.439 10.423,0.439 C 33.461,9.436 32.693,8.01 30.061,7.132 27.647,6.254 20.516,5.267 13.823,5.596"
         style="fill:#f4f4f4;fill-opacity:1;fill-rule:nonzero;stroke:none"
         id="path80"
         inkscape:connector-curvature="0" /></g><g
       id="g82"
       transform="translate(469.2253,162.40395)"><path
         d="m 0,0 1.097,10.971 c 0,0.768 1.097,0.878 2.195,0.439 C 4.169,10.861 5.156,9.874 5.047,9.216 L 4.827,5.485 c 3.731,2.744 11.63,6.693 17.774,6.035 2.084,-0.22 4.059,-2.195 4.059,-3.84 0,-1.866 -1.207,-6.034 0.219,-8.119 1.097,-0.877 2.304,-1.207 3.73,-1.207 6.802,0 16.347,8.667 19.858,10.422 0.439,0.22 0.878,-2.194 -0.768,-4.278 -2.633,-3.401 -9.764,-9.216 -17.444,-9.216 -3.182,0 -6.693,1.317 -8.667,4.169 -1.097,1.646 -1.426,3.511 -1.426,5.486 0,1.207 0.109,2.414 0.329,3.73 C 14.372,7.789 6.034,2.523 3.95,-2.085 L 3.84,-4.608 C 3.95,-6.034 0.11,-5.047 0,-3.291 -0.11,-2.414 -0.219,-1.316 0,0"
         style="fill:#f4f4f4;fill-opacity:1;fill-rule:nonzero;stroke:none"
         id="path84"
         inkscape:connector-curvature="0" /></g><g
       id="g86"
       transform="translate(526.2702,185.99185)"><path
         d="m 0,0 c 0.219,0.329 0.987,2.523 1.207,3.071 l 0.219,1.646 c 0,0.659 1.207,0.878 2.304,0.439 C 5.156,4.827 6.034,3.949 5.814,3.4 5.814,2.962 5.814,2.194 5.485,1.536 5.266,0.987 4.388,-1.427 4.059,-1.975 3.73,-2.414 2.414,-2.414 1.426,-1.865 0.109,-1.427 -0.549,-0.439 0,0 m -3.292,-18.212 c 0,3.4 0.659,6.802 1.866,8.667 0.109,0.549 1.206,0.658 2.523,0.329 1.207,-0.439 1.865,-1.316 1.755,-1.865 -0.877,-0.878 -3.072,-13.275 -1.426,-14.701 0.878,-0.658 1.975,-0.988 3.181,-0.988 6.803,0 18.432,8.777 21.723,12.069 0.439,0.438 1.536,-0.22 0.22,-2.634 -2.085,-3.84 -12.069,-12.507 -19.638,-12.836 -2.743,-0.109 -5.705,0.549 -7.79,2.853 -1.645,1.756 -2.414,5.485 -2.414,9.106"
         style="fill:#f4f4f4;fill-opacity:1;fill-rule:nonzero;stroke:none"
         id="path88"
         inkscape:connector-curvature="0" /></g><g
       id="g90"
       transform="translate(562.9108,185.00455)"><path
         d="M 0,0 C 0.109,0.329 0.768,1.975 0.768,4.498 0.987,5.266 1.975,5.485 2.962,4.937 4.169,4.388 4.937,3.4 4.937,2.633 4.937,1.535 4.717,-1.427 3.84,-2.523 3.511,-3.072 2.414,-3.072 1.207,-2.305 0.329,-1.646 -0.33,-0.549 0,0 m 1.865,-33.023 -0.11,2.414 -0.658,-0.329 c -14.921,-9.107 -27.647,-21.723 -28.305,-32.037 0,-5.265 3.071,-10.641 8.337,-12.616 1.866,-0.658 3.292,-0.987 4.828,-0.987 9.764,0 14.262,13.274 15.689,29.841 0.109,4.608 0.329,9.325 0.219,13.714 m -32.803,-28.086 c 0.548,11.081 13.604,23.917 28.853,33.242 l 3.84,2.085 c -0.109,5.265 -0.329,8.009 -0.658,12.068 l -0.329,-0.329 c -1.098,-1.098 -4.06,-4.389 -5.596,-5.157 -0.548,-0.219 -3.401,-0.548 -2.084,1.536 1.755,2.414 7.789,10.752 7.46,10.423 0.988,0.878 3.73,-0.768 3.73,-2.195 0.11,-0.219 0.878,-5.376 1.097,-14.481 4.06,1.975 15.58,5.705 17.993,4.388 1.097,-0.548 0.439,-1.535 -0.439,-1.755 -4.279,-1.207 -8.777,-2.962 -13.275,-5.047 l -4.059,-2.084 0.11,-3.072 v -4.169 c 0,-4.279 -0.11,-8.667 -0.33,-13.056 -1.206,-15.25 -5.156,-31.267 -17.114,-31.267 -1.975,0 -4.169,0.438 -6.803,1.425 -7.13,2.743 -12.396,9.545 -12.396,17.445"
         style="fill:#f4f4f4;fill-opacity:1;fill-rule:nonzero;stroke:none"
         id="path92"
         inkscape:connector-curvature="0" /></g><g
       id="g94"
       transform="translate(611.2888,169.75455)"><path
         d="m 0,0 c -1.097,0.329 -2.633,0.549 -4.278,0.549 -5.486,0 -12.727,-2.085 -13.933,-7.132 -0.33,-1.316 0.329,-2.523 1.974,-2.633 C -10.971,-8.558 -3.84,-4.06 0,0 m -21.503,-5.596 c 0,2.414 1.207,4.827 3.95,6.693 2.962,1.974 6.692,2.963 10.532,2.963 3.072,0 6.144,-0.659 8.886,-1.866 H 1.976 L 3.841,4.718 C 4.499,5.924 8.229,3.511 7.461,2.194 6.912,0.549 5.925,-1.427 5.705,-3.511 5.596,-5.376 6.145,-7.57 8.119,-8.119 c 5.595,-1.097 15.03,4.499 18.98,8.887 1.865,1.865 3.51,-0.878 -2.524,-6.912 -2.742,-2.743 -10.312,-6.253 -14.92,-5.157 -3.621,0.878 -6.363,2.963 -7.79,6.912 -3.071,-2.743 -10.312,-8.338 -16.127,-8.338 -1.426,0 -2.743,0.33 -3.949,1.097 -2.195,1.647 -3.292,3.731 -3.292,6.034"
         style="fill:#f4f4f4;fill-opacity:1;fill-rule:nonzero;stroke:none"
         id="path96"
         inkscape:connector-curvature="0" /></g><g
       id="g98"
       transform="translate(643.7595,158.78285)"><path
         d="m 0,0 c 0.987,-0.219 2.194,-0.329 3.62,-0.329 3.511,0 7.9,0.549 10.752,1.207 C 11.629,2.305 7.46,4.389 5.266,5.596 2.413,7.241 -0.658,8.339 -1.098,11.63 -1.975,17.444 9.983,20.955 15.579,21.724 17.334,21.942 19.528,19.858 18.65,18.761 14.591,17.335 4.607,15.47 3.4,12.617 2.742,11.081 5.266,9.984 7.46,8.668 11.629,6.363 14.921,4.718 17.114,2.963 19.528,0.878 17.443,-2.193 14.591,-2.962 12.616,-3.511 9.764,-3.84 6.911,-3.84 4.169,-3.84 1.536,-3.511 -0.11,-2.852 -1.427,-2.193 -2.414,0.549 0,0"
         style="fill:#f4f4f4;fill-opacity:1;fill-rule:nonzero;stroke:none"
         id="path100"
         inkscape:connector-curvature="0" /></g><g
       id="g102"
       transform="translate(728.2292,158.23505)"><path
         d="m 0,0 c 9.106,0.658 17.006,6.473 23.588,12.287 0.658,0.44 1.427,-1.426 0.658,-2.852 C 22.491,6.144 15.25,-2.523 1.865,-3.292 c -6.363,0 -12.616,4.279 -12.287,11.41 0.109,3.072 1.426,6.034 3.949,8.119 1.536,1.206 3.511,2.194 5.925,2.194 1.206,0 2.633,-0.219 4.059,-0.988 1.426,-0.767 2.414,-2.084 2.523,-3.181 0,-1.865 -2.304,-2.633 -3.291,-2.962 -1.097,-0.439 -2.085,0 -1.316,1.427 0.219,0.438 0.658,1.316 0.767,2.523 C -1.865,16.127 -5.924,12.068 -6.802,7.899 -7.789,3.182 -4.937,0 0,0"
         style="fill:#f4f4f4;fill-opacity:1;fill-rule:nonzero;stroke:none"
         id="path104"
         inkscape:connector-curvature="0" /></g><g
       id="g106"
       transform="translate(759.7136,165.69495)"><path
         d="M 0,0 C 4.607,2.085 7.68,5.047 6.473,6.254 4.169,8.558 -0.109,2.743 0,0 M -3.401,-3.182 C -3.73,-2.194 -3.95,-1.097 -3.95,0 c 0,4.827 3.292,9.765 8.668,9.983 3.4,0 6.582,-3.291 5.375,-6.472 C 8.667,0 3.949,-2.633 0.109,-2.633 c 0.329,-2.085 4.169,-5.596 8.009,-5.596 10.314,0 17.993,7.68 22.601,12.508 2.523,2.633 2.085,0.11 0.549,-2.963 C 28.195,-5.047 21.174,-10.423 13.604,-10.861 7.131,-11.19 -1.207,-9.983 -3.401,-3.182"
         style="fill:#f4f4f4;fill-opacity:1;fill-rule:nonzero;stroke:none"
         id="path108"
         inkscape:connector-curvature="0" /></g><g
       id="g110"
       transform="translate(796.2438,162.40395)"><path
         d="m 0,0 1.097,10.971 c 0,0.768 1.097,0.878 2.194,0.439 C 4.169,10.861 5.156,9.874 5.047,9.216 L 4.827,5.485 c 3.731,2.744 11.63,6.693 17.774,6.035 2.084,-0.22 4.059,-2.195 4.059,-3.84 0,-1.866 -1.207,-6.034 0.219,-8.119 1.098,-0.877 2.304,-1.207 3.73,-1.207 6.802,0 16.347,8.667 19.858,10.422 0.439,0.22 0.878,-2.194 -0.768,-4.278 -2.634,-3.401 -9.764,-9.216 -17.444,-9.216 -3.182,0 -6.693,1.317 -8.667,4.169 -1.097,1.646 -1.427,3.511 -1.427,5.486 0,1.207 0.11,2.414 0.33,3.73 C 14.372,7.789 6.034,2.523 3.949,-2.085 L 3.84,-4.608 C 3.949,-6.034 0.109,-5.047 0,-3.291 -0.109,-2.414 -0.22,-1.316 0,0"
         style="fill:#f4f4f4;fill-opacity:1;fill-rule:nonzero;stroke:none"
         id="path112"
         inkscape:connector-curvature="0" /></g><g
       id="g114"
       transform="translate(851.2048,160.42935)"><path
         d="m 0,0 c 0,6.363 0.109,12.287 0.219,16.566 0.11,5.157 0.329,11.629 0.658,18.322 -9.106,-0.768 -17.663,-1.427 -26.439,-2.962 -2.085,-0.329 -4.389,2.523 -2.524,2.962 7.789,1.425 15.579,2.303 29.073,3.401 0.439,8.557 0.988,17.225 1.426,24.026 -0.109,1.755 4.169,1.097 4.498,-1.097 -0.767,-5.486 -1.426,-14.043 -1.864,-22.6 0.987,0 2.084,0.11 3.181,0.219 9.326,0.658 21.833,1.645 32.585,1.645 6.252,0 17.992,-4.716 17.114,-4.607 -4.937,0.987 -11.08,1.316 -17.663,1.316 -11.74,0 -24.576,-1.096 -32.913,-1.754 -0.878,-0.111 -1.646,-0.22 -2.524,-0.22 L 4.059,16.785 C 3.949,9.764 3.62,-0.549 3.62,-10.532 c 0,-11.191 0.439,-21.943 1.865,-27.099 0.329,-2.523 -3.072,-0.22 -3.839,2.084 C 0.438,-31.707 0,-14.701 0,0"
         style="fill:#f4f4f4;fill-opacity:1;fill-rule:nonzero;stroke:none"
         id="path116"
         inkscape:connector-curvature="0" /></g><g
       id="g118"
       transform="translate(875.3376,174.80145)"><path
         d="M 0,0 C 0,0.768 1.098,0.768 2.194,0.219 3.182,-0.329 3.84,-1.427 3.84,-2.085 L 3.73,-6.363 c 2.743,3.51 10.862,9.874 16.896,8.886 2.523,-0.439 4.059,-2.743 3.291,-3.621 -1.536,-1.755 -3.072,-1.096 -2.962,-0.218 l 0.109,0.877 C 15.579,-0.329 6.473,-7.021 3.84,-14.592 3.511,-15.47 3.511,-16.128 3.072,-19.31 c 0.11,-1.425 -3.51,0 -3.95,1.646 C -1.316,-16.677 -1.536,-13.824 0,0"
         style="fill:#f4f4f4;fill-opacity:1;fill-rule:nonzero;stroke:none"
         id="path120"
         inkscape:connector-curvature="0" /></g><g
       id="g122"
       transform="translate(911.7595,158.78285)"><path
         d="m 0,0 c 0.987,-0.219 2.194,-0.329 3.62,-0.329 3.511,0 7.9,0.549 10.752,1.207 C 11.629,2.305 7.46,4.389 5.266,5.596 2.413,7.241 -0.658,8.339 -1.098,11.63 -1.975,17.444 9.983,20.955 15.579,21.724 17.334,21.942 19.528,19.858 18.65,18.761 14.591,17.335 4.607,15.47 3.4,12.617 2.742,11.081 5.266,9.984 7.46,8.668 11.629,6.363 14.921,4.718 17.114,2.963 19.528,0.878 17.443,-2.193 14.591,-2.962 12.616,-3.511 9.764,-3.84 6.911,-3.84 4.169,-3.84 1.536,-3.511 -0.11,-2.852 -1.427,-2.193 -2.414,0.549 0,0"
         style="fill:#f4f4f4;fill-opacity:1;fill-rule:nonzero;stroke:none"
         id="path124"
         inkscape:connector-curvature="0" /></g><g
       id="g126"
       transform="translate(278.5396,169.04295)"><path
         d="m 0,0 c 0,-2.364 -1.916,-4.28 -4.28,-4.28 -2.364,0 -4.28,1.916 -4.28,4.28 0,2.364 1.916,4.28 4.28,4.28 C -1.916,4.28 0,2.364 0,0"
         style="fill:#ffffff;fill-opacity:1;fill-rule:nonzero;stroke:none"
         id="path128"
         inkscape:connector-curvature="0" /></g><g
       id="g130"
       transform="translate(954.4298,169.04295)"><path
         d="m 0,0 c 0,-2.364 -1.916,-4.28 -4.28,-4.28 -2.364,0 -4.28,1.916 -4.28,4.28 0,2.364 1.916,4.28 4.28,4.28 C -1.916,4.28 0,2.364 0,0"
         style="fill:#ffffff;fill-opacity:1;fill-rule:nonzero;stroke:none"
         id="path132"
         inkscape:connector-curvature="0" /></g><g
       id="g134"
       transform="translate(142.5657,454.07369)"
       style="stroke:#594c43;stroke-width:8.69999981;stroke-miterlimit:4;stroke-dasharray:none;stroke-opacity:1"><path
         d="M 0,0 C 0,0 231.49,-184.445 526.453,34.35"
         style="fill:none;stroke:#594c43;stroke-width:8.69999981;stroke-linecap:round;stroke-linejoin:round;stroke-miterlimit:4;stroke-dasharray:none;stroke-opacity:1"
         id="path136"
         inkscape:connector-curvature="0" /></g><g
       id="g138"
       transform="translate(223.2139,549.65669)"
       style="stroke:#594c43;stroke-width:8.69999981;stroke-miterlimit:4;stroke-dasharray:none;stroke-opacity:1"><path
         d="m 0,0 c 0,0 11.993,-147.379 160.572,-168.152 0,0 26.86,135.295 -160.572,168.152 z"
         style="fill:none;stroke:#594c43;stroke-width:8.69999981;stroke-linecap:round;stroke-linejoin:round;stroke-miterlimit:4;stroke-dasharray:none;stroke-opacity:1"
         id="path140"
         inkscape:connector-curvature="0" /></g><g
       id="g142"
       transform="translate(383.7859,381.50439)"
       style="stroke:#594c43;stroke-width:8.69999981;stroke-miterlimit:4;stroke-dasharray:none;stroke-opacity:1"><path
         d="M 0,0 C 0,0 -4.503,128.575 164.261,168.152 164.261,168.152 164.306,8.826 0,0 Z"
         style="fill:none;stroke:#594c43;stroke-width:8.69999981;stroke-linecap:butt;stroke-linejoin:miter;stroke-miterlimit:4;stroke-dasharray:none;stroke-opacity:1"
         id="path144"
         inkscape:connector-curvature="0" /></g><g
       id="g146"
       transform="translate(276.9793,506.34569)"
       style="stroke:#594c43;stroke-width:8.69999981;stroke-miterlimit:4;stroke-dasharray:none;stroke-opacity:1"><path
         d="m 0,0 c -17.922,34.35 -8.961,92.596 -8.961,92.596 0,0 103.598,-47.18 143.648,-133.361"
         style="fill:none;stroke:#594c43;stroke-width:8.69999981;stroke-linecap:round;stroke-linejoin:round;stroke-miterlimit:4;stroke-dasharray:none;stroke-opacity:1"
         id="path148"
         inkscape:connector-curvature="0" /></g><g
       id="g150"
       transform="translate(367.5546,465.58059)"
       style="stroke:#594c43;stroke-width:8.69999981;stroke-miterlimit:4;stroke-dasharray:none;stroke-opacity:1"><path
         d="m 0,0 c 0,0 30.397,93.037 131.954,133.361 0,0 11.497,-14.333 6.869,-62.052"
         style="fill:none;stroke:#594c43;stroke-width:8.69999981;stroke-linecap:round;stroke-linejoin:round;stroke-miterlimit:4;stroke-dasharray:none;stroke-opacity:1"
         id="path152"
         inkscape:connector-curvature="0" /></g><g
       id="g154"
       transform="translate(327.9062,562.30309)"
       style="stroke:#594c43;stroke-width:8.69999981;stroke-miterlimit:4;stroke-dasharray:none;stroke-opacity:1"><path
         d="m 0,0 c 0,0 21.978,57.547 57.213,79.95 0,0 36.891,-25.213 54.773,-78.005"
         style="fill:none;stroke:#594c43;stroke-width:8.69999981;stroke-linecap:round;stroke-linejoin:round;stroke-miterlimit:4;stroke-dasharray:none;stroke-opacity:1"
         id="path156"
         inkscape:connector-curvature="0" /></g><g
       id="g158"
       transform="matrix(1.6905719,0,0,1.6905719,296.24579,488.98661)"
       style="fill:#594c43;fill-opacity:1"><path
         d="m 0,0 c 0,-2.887 -2.34,-5.227 -5.227,-5.227 -2.887,0 -5.227,2.34 -5.227,5.227 0,2.887 2.34,5.227 5.227,5.227 C -2.34,5.227 0,2.887 0,0"
         style="fill:#594c43;fill-opacity:1;fill-rule:nonzero;stroke:none"
         id="path160"
         inkscape:connector-curvature="0" /></g></g></svg>